<?xml version="1.0" encoding="UTF-8"?>
<svg id="Layer_1" xmlns="http://www.w3.org/2000/svg" version="1.1" viewBox="0 0 207.95 127.4">
  <!-- Generator: Adobe Illustrator 30.1.0, SVG Export Plug-In . SVG Version: 2.1.1 Build 136)  -->
  <defs>
    <style>
      .st0 {
        fill: #e57226;
      }

      .st0, .st1, .st2 {
        stroke: #fff;
        stroke-miterlimit: 10;
      }

      .st1 {
        fill: #0d1113;
      }

      .st2 {
        fill: #fff;
        stroke-width: 9px;
      }
    </style>
  </defs>
  <g>
    <path class="st2" d="M28.37,45.5h21.7c10.9-.7,16.9-6.7,18.1-18.2,1.2-11.4-4-17.4-15.5-18H16.17l-5.2,52.6h15.7l1.7-16.4ZM30.87,22.5h19.5c3.2.5,4.5,2.1,4.1,4.9-.5,2.8-2.1,4.2-5,4.2h-19.5l.9-9.1Z"/>
    <path class="st2" d="M100.37,48.6h-31.7l-1.2,14h40.6c7.2-1,11.1-4.6,11.7-10.8l4.2-42.5h-14.5l-2.1,19.4h-19.3c-2.6-.3-3.8-1.9-3.4-4.9l1.3-14.4h-14l-1.8,17.6c-.6,11.4,4.3,17.1,14.6,16.8h20.8v.3c-.3,3-2,4.5-5.2,4.5Z"/>
    <path class="st2" d="M136.87,61.9h37.1v.1h.1l2.9-29.1h-13.8l-1.6,15.3h-20c-2.3-.6-3.5-1.9-3.8-4-.6-6.6.4-13.1,3-19.6,1.1-1.6,2.8-2.5,5.2-2.5h31.9l1.4-12.9h-36.2c-11.5.6-18,9.4-19.7,26.3-1.7,17,2.8,25.8,13.5,26.4Z"/>
    <polygon class="st2" points="191.77 61.9 196.97 9.3 181.67 9.3 176.07 61.9 191.77 61.9"/>
    <path class="st2" d="M123.37,65.2h-47.2l-5.17,51.61-18.93-25.81,23.5-25.5h-19.3l-10.9,11.7-8.3-11.7h-20.2l19.4,26.3-25.3,26.2h20.4l11.6-11.8,9,11.8h18.91v.1s-.01.1-.01.1h14.6l3.8-37.8h11.4l-3.8,37.7h13.3l3.8-37.7h7.1c3-.1,4.2,1.8,3.4,5.8l-3.2,31.9h13.3l3.6-36.1c.6-11.4-4.4-17-14.8-16.8Z"/>
    <polygon class="st2" points="158.47 65.2 158.46 65.3 158.47 65.3 158.47 65.2"/>
    <path class="st2" d="M155.17,97.9l3.29-32.6h-15.89l-3.3,33c-1.4,12.5,3.6,19.1,15.1,19.7h36.2l1.4-14.9h-32c-3.2-.3-4.8-2-4.8-5.2Z"/>
  </g>
  <g>
    <g>
      <path class="st1" d="M16.17,9.3h36.5c11.5.6,16.7,6.6,15.5,18-1.2,11.5-7.2,17.5-18.1,18.2h-21.7l-1.7,16.4h-15.7s5.2-52.6,5.2-52.6ZM29.97,31.6h19.5c2.9,0,4.5-1.4,5-4.2.4-2.8-.9-4.4-4.1-4.9h-19.5l-.9,9.1Z"/>
      <path class="st1" d="M123.97,9.3l-4.2,42.5c-.6,6.2-4.5,9.8-11.7,10.8h-40.6l1.2-14h31.7c3.2,0,4.9-1.5,5.2-4.5v-.3h-20.8c-10.3.3-15.2-5.4-14.6-16.8l1.8-17.6h14l-1.3,14.4c-.4,3,.8,4.6,3.4,4.9h19.3l2.1-19.4h14.6-.1Z"/>
      <path class="st1" d="M173.97,61.9h-37.1c-10.7-.6-15.2-9.4-13.5-26.4,1.7-16.9,8.2-25.7,19.7-26.3h36.2l-1.4,12.9h-31.9c-2.4,0-4.1.9-5.2,2.5-2.6,6.5-3.6,13-3,19.6.3,2.1,1.5,3.4,3.8,4h20l1.6-15.3h13.8l-2.9,29.1h-.1v-.1h0Z"/>
      <path class="st1" d="M181.57,9.3h15.4l-5.2,52.6h-15.7l5.6-52.6h-.1Z"/>
    </g>
    <g>
      <path class="st0" d="M36.27,91.8l-19.4-26.3h20.2l8.3,11.7,10.9-11.7h19.3l-23.5,25.5,19.8,27h-19.9l-9-11.8-11.6,11.8H10.97l25.3-26.2h0Z"/>
      <path class="st0" d="M70.87,118.1l5.3-52.9h47.2c10.4-.2,15.4,5.4,14.8,16.8l-3.6,36.1h-13.3l3.2-31.9c.8-4-.4-5.9-3.4-5.8h-7.1l-3.8,37.7h-13.3l3.8-37.7h-11.4l-3.8,37.8h-14.6s0-.1,0-.1Z"/>
      <path class="st0" d="M158.47,65.2l-3.3,32.7c0,3.2,1.6,4.9,4.8,5.2h32l-1.4,14.9h-36.2c-11.5-.6-16.5-7.2-15.1-19.7l3.3-33h15.9s0-.1,0-.1Z"/>
    </g>
  </g>
  <g>
    <g>
      <path class="st1" d="M16.17,9.3h36.5c11.5.6,16.7,6.6,15.5,18-1.2,11.5-7.2,17.5-18.1,18.2h-21.7l-1.7,16.4h-15.7s5.2-52.6,5.2-52.6ZM29.97,31.6h19.5c2.9,0,4.5-1.4,5-4.2.4-2.8-.9-4.4-4.1-4.9h-19.5l-.9,9.1Z"/>
      <path class="st1" d="M123.97,9.3l-4.2,42.5c-.6,6.2-4.5,9.8-11.7,10.8h-40.6l1.2-14h31.7c3.2,0,4.9-1.5,5.2-4.5v-.3h-20.8c-10.3.3-15.2-5.4-14.6-16.8l1.8-17.6h14l-1.3,14.4c-.4,3,.8,4.6,3.4,4.9h19.3l2.1-19.4h14.6-.1Z"/>
      <path class="st1" d="M173.97,61.9h-37.1c-10.7-.6-15.2-9.4-13.5-26.4,1.7-16.9,8.2-25.7,19.7-26.3h36.2l-1.4,12.9h-31.9c-2.4,0-4.1.9-5.2,2.5-2.6,6.5-3.6,13-3,19.6.3,2.1,1.5,3.4,3.8,4h20l1.6-15.3h13.8l-2.9,29.1h-.1v-.1h0Z"/>
      <path class="st1" d="M181.57,9.3h15.4l-5.2,52.6h-15.7l5.6-52.6h-.1Z"/>
    </g>
    <g>
      <path class="st0" d="M36.27,91.8l-19.4-26.3h20.2l8.3,11.7,10.9-11.7h19.3l-23.5,25.5,19.8,27h-19.9l-9-11.8-11.6,11.8H10.97l25.3-26.2h0Z"/>
      <path class="st0" d="M70.87,118.1l5.3-52.9h47.2c10.4-.2,15.4,5.4,14.8,16.8l-3.6,36.1h-13.3l3.2-31.9c.8-4-.4-5.9-3.4-5.8h-7.1l-3.8,37.7h-13.3l3.8-37.7h-11.4l-3.8,37.8h-14.6s0-.1,0-.1Z"/>
      <path class="st0" d="M158.47,65.2l-3.3,32.7c0,3.2,1.6,4.9,4.8,5.2h32l-1.4,14.9h-36.2c-11.5-.6-16.5-7.2-15.1-19.7l3.3-33h15.9s0-.1,0-.1Z"/>
    </g>
  </g>
</svg>