<?xml version="1.0" encoding="UTF-8"?>
<svg id="Layer_1" data-name="Layer 1" xmlns="http://www.w3.org/2000/svg" version="1.1" viewBox="0 0 368.8 60.5">
  <defs>
    <style>
      .cls-1 {
        fill: #e67225;
      }

      .cls-1, .cls-2 {
        stroke: #fff;
        stroke-miterlimit: 10;
      }

      .cls-2 {
        fill: #070e10;
      }
    </style>
  </defs>
  <path class="cls-2" d="M6.9,3.8h36.5c11.5.6,16.7,6.6,15.5,18-1.2,11.5-7.2,17.5-18.1,18.2h-21.7l-1.7,16.4H1.7S6.9,3.8,6.9,3.8ZM20.7,26.1h19.5c2.9,0,4.5-1.4,5-4.2.4-2.8-.9-4.4-4.1-4.9h-19.5l-.9,9.1Z"/>
  <path class="cls-2" d="M114.7,3.8l-4.2,42.5c-.6,6.2-4.5,9.8-11.7,10.8h-40.6c0,0,1.2-14,1.2-14h31.7c3.2,0,4.9-1.5,5.2-4.5v-.3h-20.8c-10.3.3-15.2-5.4-14.6-16.8l1.8-17.6h14s-1.3,14.4-1.3,14.4c-.4,3,.8,4.6,3.4,4.9h19.3l2.1-19.4h14.6Z"/>
  <path class="cls-2" d="M164.7,56.4h-37.1c-10.7-.6-15.2-9.4-13.5-26.4,1.7-16.9,8.2-25.7,19.7-26.3h36.2s-1.4,12.9-1.4,12.9h-31.9c-2.4,0-4.1.9-5.2,2.5-2.6,6.5-3.6,13-3,19.6.3,2.1,1.5,3.4,3.8,4h20s1.6-15.3,1.6-15.3h13.8s-2.9,29.1-2.9,29.1Z"/>
  <path class="cls-2" d="M172.3,3.8h15.4l-5.2,52.6h-15.7l5.6-52.6Z"/>
  <path class="cls-1" d="M209.5,30.3l-19.4-26.3h20.2l8.3,11.7,10.9-11.7h19.3l-23.5,25.5,19.8,27h-19.9l-9-11.8-11.6,11.8h-20.4l25.4-26.3Z"/>
  <path class="cls-1" d="M244.1,56.6l5.3-52.9h47.2c10.4-.2,15.4,5.4,14.8,16.8l-3.6,36.1h-13.3l3.2-31.9c.8-4-.4-5.9-3.4-5.8h-7.1s-3.8,37.7-3.8,37.7h-13.3s3.8-37.7,3.8-37.7h-11.4s-3.8,37.8-3.8,37.8h-14.5Z"/>
  <path class="cls-1" d="M331.7,3.7l-3.3,32.7c0,3.2,1.6,4.9,4.8,5.2h32s-1.4,14.9-1.4,14.9h-36.2c-11.5-.6-16.5-7.2-15.1-19.7l3.3-33h15.9Z"/>
</svg>